<?xml version="1.0" encoding="utf-8"?>
<!-- Generator: Adobe Illustrator 15.0.0, SVG Export Plug-In . SVG Version: 6.00 Build 0)  -->
<!DOCTYPE svg PUBLIC "-//W3C//DTD SVG 1.1//EN" "http://www.w3.org/Graphics/SVG/1.1/DTD/svg11.dtd">
<svg version="1.1" id="Layer_1" xmlns="http://www.w3.org/2000/svg" xmlns:xlink="http://www.w3.org/1999/xlink" x="0px" y="0px"
	 width="56px" height="56px" viewBox="0 0 56 56" enable-background="new 0 0 56 56" xml:space="preserve">
<path fill="#8A8A8D" d="M28.144,0.144C12.76,0.144,0.287,12.617,0.287,28c0,15.387,12.473,27.856,27.856,27.856
	C43.529,55.856,56,43.387,56,28C56,12.617,43.529,0.144,28.144,0.144z M34.111,28.01h-3.903c0,6.236,0,13.917,0,13.917h-5.785
	c0,0,0-7.603,0-13.917h-2.751v-4.917h2.751v-3.183c0-2.278,1.082-5.839,5.837-5.839l4.284,0.017v4.774c0,0-2.604,0-3.109,0
	c-0.507,0-1.228,0.251-1.228,1.339v2.891h4.41L34.111,28.01z"/>
</svg>
