<?xml version="1.0" encoding="utf-8"?>
<!-- Generator: Adobe Illustrator 19.2.0, SVG Export Plug-In . SVG Version: 6.00 Build 0)  -->
<svg version="1.1" id="Layer_1" xmlns="http://www.w3.org/2000/svg" xmlns:xlink="http://www.w3.org/1999/xlink" x="0px" y="0px"
	 viewBox="0 0 56 56" style="enable-background:new 0 0 56 56;" xml:space="preserve">
<style type="text/css">
	.st0{display:none;}
	.st1{display:inline;fill:#8A8A8D;}
	.st2{fill:#E2231A;}
	.st3{fill:#F1F2F2;}
</style>
<g class="st0">
	<path class="st1" d="M28.2,0.1C12.8,0.1,0.3,12.6,0.3,28c0,15.4,12.5,27.9,27.9,27.9C43.6,55.9,56,43.4,56,28
		C56,12.6,43.6,0.1,28.2,0.1z M44.7,40.3c0,2.3-1.9,4.3-4.3,4.3H15.9c-2.3,0-4.3-1.9-4.3-4.3V15.7c0-2.3,1.9-4.3,4.3-4.3h24.6
		c2.3,0,4.3,1.9,4.3,4.3V40.3z"/>
	<path class="st1" d="M35.7,21.7h3.7c0.8,0,1.5-0.7,1.5-1.5v-3.6c0-0.8-0.7-1.5-1.5-1.5h-3.7c-0.8,0-1.5,0.7-1.5,1.5v3.6
		C34.2,21,34.9,21.7,35.7,21.7z"/>
	<path class="st1" d="M38.5,28.3c0,5.5-4.6,10-10.3,10c-5.7,0-10.3-4.5-10.3-10c0-1,0.1-1.9,0.4-2.8h-3v14c0,0.7,0.6,1.3,1.3,1.3
		h23.1c0.7,0,1.3-0.6,1.3-1.3v-14h-2.9C38.4,26.3,38.5,27.3,38.5,28.3z"/>
	<ellipse class="st1" cx="28.2" cy="27.9" rx="6.7" ry="6.4"/>
</g>
<ellipse class="st2" cx="28.2" cy="27.9" rx="27.9" ry="27.9"/>
<g>
	<path class="st3" d="M42.9,28.3v10.4h-6V29c0-2.4-0.9-4.1-3.1-4.1c-1.7,0-2.7,1.1-3.1,2.2c-0.2,0.4-0.2,0.9-0.2,1.5v10.2h-6
		c0,0,0.1-16.5,0-18.2h6v2.6c0,0,0,0,0,0.1h0v-0.1c0.8-1.2,2.2-3,5.4-3C39.9,20.1,42.9,22.7,42.9,28.3L42.9,28.3z M18.1,11.8
		c-2.1,0-3.4,1.4-3.4,3.1c0,1.7,1.3,3.1,3.3,3.1h0c2.1,0,3.4-1.4,3.4-3.1C21.4,13.1,20.2,11.8,18.1,11.8L18.1,11.8z M15,38.7h6V20.5
		h-6V38.7z M15,38.7"/>
</g>
</svg>
