<?xml version="1.0" encoding="utf-8"?>
<!-- Generator: Adobe Illustrator 15.0.0, SVG Export Plug-In . SVG Version: 6.00 Build 0)  -->
<!DOCTYPE svg PUBLIC "-//W3C//DTD SVG 1.1//EN" "http://www.w3.org/Graphics/SVG/1.1/DTD/svg11.dtd">
<svg version="1.1" id="Layer_1" xmlns="http://www.w3.org/2000/svg" xmlns:xlink="http://www.w3.org/1999/xlink" x="0px" y="0px"
	 width="56px" height="56px" viewBox="0 0 56 56" enable-background="new 0 0 56 56" xml:space="preserve">
<g>
	<path fill="#8A8A8D" d="M28.174,0.144C12.788,0.144,0.317,12.616,0.317,28c0,15.388,12.471,27.856,27.856,27.856
		C43.558,55.856,56.03,43.388,56.03,28C56.03,12.616,43.558,0.144,28.174,0.144z M44.739,40.313c0,2.339-1.915,4.254-4.253,4.254
		H15.858c-2.338,0-4.251-1.915-4.251-4.254V15.686c0-2.338,1.913-4.252,4.251-4.252h24.628c2.338,0,4.253,1.914,4.253,4.252V40.313z
		"/>
	<path fill="#8A8A8D" d="M35.741,21.67h3.744c0.821,0,1.494-0.673,1.494-1.494v-3.569c0-0.821-0.673-1.492-1.494-1.492h-3.744
		c-0.821,0-1.492,0.671-1.492,1.492v3.569C34.249,20.997,34.92,21.67,35.741,21.67z"/>
	<path fill="#8A8A8D" d="M38.503,28.288c0,5.514-4.612,9.978-10.299,9.978c-5.688,0-10.298-4.464-10.298-9.978
		c0-0.988,0.148-1.941,0.425-2.843h-3.043v13.995c0,0.728,0.593,1.317,1.316,1.317h23.073c0.723,0,1.317-0.59,1.317-1.317V25.445
		h-2.918C38.353,26.346,38.503,27.299,38.503,28.288z"/>
	<ellipse fill="#8A8A8D" cx="28.204" cy="27.93" rx="6.654" ry="6.448"/>
</g>
</svg>
